<svg width="900" height="620" viewBox="0 0 900 620" fill="none" xmlns="http://www.w3.org/2000/svg"><defs><linearGradient id="a" x1="109" y1="85" x2="789" y2="546"><stop stop-color="#0D2A3E"/><stop offset="1" stop-color="#06131D"/></linearGradient><linearGradient id="b" x1="268" y1="165" x2="658" y2="476"><stop stop-color="#67E8F9"/><stop offset="1" stop-color="#2563EB"/></linearGradient></defs><rect x="4" y="4" width="892" height="612" rx="38" fill="url(#a)" stroke="#24465B" stroke-width="8"/><path d="M148 142h100v12h-88v88h-12V142ZM652 142h100v100h-12v-88h-88v-12ZM148 378h12v88h88v12H148V378ZM740 378h12v100H652v-12h88v-88Z" fill="#22D3EE"/><path d="M290 208 450 137l160 71v187L450 487l-160-92V208Z" fill="#0A1A25" stroke="url(#b)" stroke-width="8"/><path d="M450 137v350M290 208l160 92 160-92" stroke="#23556E" stroke-width="4"/><path d="M345 323c42-30 75 47 119 2 34-35 68 10 95-39" stroke="#FB7185" stroke-width="8" stroke-linecap="round"/><rect x="318" y="286" width="271" height="84" rx="14" stroke="#FB7185" stroke-width="4" stroke-dasharray="11 9"/><text x="342" y="414" fill="#FB7185" font-family="Arial" font-size="24" font-weight="700">SURFACE IRREGULARITY</text><rect x="62" y="72" width="231" height="83" rx="17" fill="#0B2638" stroke="#2A5A72" stroke-width="3"/><circle cx="101" cy="113" r="16" fill="#FB7185" fill-opacity=".16"/><path d="M94 106 108 120M108 106l-14 14" stroke="#FB7185" stroke-width="4" stroke-linecap="round"/><text x="132" y="105" fill="#E8F6FC" font-family="Arial" font-size="18" font-weight="700">Defect found</text><text x="132" y="131" fill="#7EA6BA" font-family="Arial" font-size="15">Confidence 94%</text><rect x="618" y="452" width="220" height="99" rx="17" fill="#0B2638" stroke="#2A5A72" stroke-width="3"/><text x="647" y="486" fill="#7EA6BA" font-family="Arial" font-size="14" font-weight="700">ANOMALY SCORE</text><text x="647" y="531" fill="#67E8F9" font-family="Arial" font-size="38" font-weight="800">0.88</text></svg>
